SplineFontDB: 3.2
FontName: CMC
FullName: Condensed Morse Code
FamilyName: CMC
Weight: Regular
Copyright: CC-BY-SA 4.0
UComments: "2025-8-11: Created with FontForge (http://fontforge.org)"
Version: 001.000
ItalicAngle: 0
UnderlinePosition: -102.4
UnderlineWidth: 51.2
Ascent: 819
Descent: 205
InvalidEm: 0
LayerCount: 2
Layer: 0 0 "Back" 1
Layer: 1 0 "Fore" 0
XUID: [1021 981 240389717 18805]
StyleMap: 0x0000
FSType: 0
OS2Version: 0
OS2_WeightWidthSlopeOnly: 0
OS2_UseTypoMetrics: 1
CreationTime: 1754943748
ModificationTime: 1755270096
OS2TypoAscent: 0
OS2TypoAOffset: 1
OS2TypoDescent: 0
OS2TypoDOffset: 1
OS2TypoLinegap: 92
OS2WinAscent: 0
OS2WinAOffset: 1
OS2WinDescent: 0
OS2WinDOffset: 1
HheadAscent: 0
HheadAOffset: 1
HheadDescent: 0
HheadDOffset: 1
MarkAttachClasses: 1
DEI: 91125
Encoding: ISO8859-1
UnicodeInterp: none
NameList: AGL For New Fonts
DisplaySize: -48
AntiAlias: 1
FitToEm: 0
WinInfo: 0 19 14
BeginPrivate: 0
EndPrivate
Grid
588.799804688 1331.20019531 m 0
 588.799804688 -716.799804688 l 1024
199.6796875 1331.20019531 m 0
 199.6796875 -716.799804688 l 1024
393.557617188 1331.20019531 m 0
 393.557617188 -716.799804688 l 1024
-1024 166.912109375 m 0
 2048 166.912109375 l 1024
-1024 615.423828125 m 0
 308.223632812 615.423828125 l 0
 2048 615.423828125 l 1024
-1024 387.072265625 m 0
 2048 387.072265625 l 1024
EndSplineSet
BeginChars: 256 76

StartChar: a
Encoding: 97 97 0
Width: 788
Flags: HW
HStem: 329 126<112 677> 557 119<347.745 439.661>
VStem: 334 119<570.339 662.255>
LayerCount: 2
Fore
SplineSet
112 329 m 1
 112 455 l 1
 677 455 l 1
 677 329 l 1
 112 329 l 1
334 616 m 0
 334 649 361 676 394 676 c 0
 427 676 453 649 453 616 c 0
 453 583 427 557 394 557 c 0
 361 557 334 583 334 616 c 0
EndSplineSet
Validated: 1
EndChar

StartChar: n
Encoding: 110 110 1
Width: 788
Flags: HW
HStem: 108 118<346.839 440.544> 329 126<112 677>
VStem: 334 119<121.339 212.661>
LayerCount: 2
Fore
SplineSet
112 329 m 1
 112 455 l 1
 677 455 l 1
 677 329 l 1
 112 329 l 1
334 167 m 0
 334 200 361 226 394 226 c 0
 427 226 453 200 453 167 c 0
 453 134 427 108 394 108 c 0
 361 108 334 134 334 167 c 0
EndSplineSet
Validated: 1
EndChar

StartChar: e
Encoding: 101 101 2
Width: 409
Flags: HW
HStem: 328 118<178.456 272.161>
VStem: 166 119<341.339 432.661>
LayerCount: 2
Fore
SplineSet
166 387 m 0
 166 420 192 446 225 446 c 0
 258 446 285 420 285 387 c 0
 285 354 258 328 225 328 c 0
 192 328 166 354 166 387 c 0
EndSplineSet
Validated: 1
EndChar

StartChar: h
Encoding: 104 104 3
Width: 614
Flags: HWO
HStem: 744 73<252.72 380.733>
LayerCount: 2
Fore
SplineSet
70 86 m 1
 84 96 171 158 257 244 c 1
 134 383 109 493 109 563 c 0
 109 596 114 620 118 634 c 0
 135 696 168 755 221 789 c 0
 248 806 280 817 314 817 c 0
 416 817 491 735 512 654 c 0
 518 631 521 608 521 585 c 0
 521 449 426 322 357 244 c 1
 412 190 480 137 557 87 c 1
 517 26 l 1
 437 78 366 133 307 191 c 1
 216 100 128 37 112 26 c 1
 70 86 l 1
188 615 m 0
 183 598 181 580 181 563 c 0
 181 441 283 324 307 297 c 1
 415 420 447 515 447 585 c 0
 447 604 445 621 441 636 c 0
 430 678 386 744 314 744 c 0
 294 744 277 738 261 728 c 0
 229 707 201 665 188 615 c 0
EndSplineSet
Validated: 1
EndChar

StartChar: t
Encoding: 116 116 5
Width: 788
Flags: HW
HStem: 327 126<102 686>
LayerCount: 2
Fore
SplineSet
102 327 m 1
 102 453 l 1
 686 453 l 1
 686 327 l 1
 102 327 l 1
EndSplineSet
Validated: 1
EndChar

StartChar: r
Encoding: 114 114 6
Width: 788
Flags: HW
HStem: 108 118<346.839 440.544> 327 126<102 686> 556 119<347.745 439.661>
VStem: 334 119<121.339 212.661 569.339 661.255>
LayerCount: 2
Fore
SplineSet
102 327 m 1
 102 453 l 1
 686 453 l 1
 686 327 l 1
 102 327 l 1
334 615 m 0
 334 648 361 675 394 675 c 0
 427 675 453 648 453 615 c 0
 453 582 427 556 394 556 c 0
 361 556 334 582 334 615 c 0
334 167 m 0
 334 200 361 226 394 226 c 0
 427 226 453 200 453 167 c 0
 453 134 427 108 394 108 c 0
 361 108 334 134 334 167 c 0
EndSplineSet
Validated: 1
EndChar

StartChar: i
Encoding: 105 105 7
Width: 614
Flags: HW
HStem: 680 103<242.408 371.595>
VStem: 93 103<571 634.012> 418 104<571 634.012>
LayerCount: 2
Fore
SplineSet
93 376 m 1
 93 572 l 2
 93 689 190 783 307 783 c 0
 424 783 521 689 522 572 c 2
 522 376 l 1
 418 376 l 1
 418 571 l 2
 417 631 368 680 307 680 c 0
 246 680 197 631 196 571 c 2
 196 376 l 1
 93 376 l 1
EndSplineSet
Validated: 1
EndChar

StartChar: d
Encoding: 100 100 8
Width: 788
Flags: HW
HStem: 190 72<341.621 446.08> 327 126<102 686>
VStem: 243 73<113 164.992> 471 73<113 164.992>
LayerCount: 2
Fore
SplineSet
102 327 m 1
 102 453 l 1
 686 453 l 1
 686 327 l 1
 102 327 l 1
243 -23 m 1
 243 114 l 2
 243 196 312 262 394 262 c 0
 476 262 544 196 544 114 c 2
 544 -23 l 1
 471 -23 l 1
 471 113 l 2
 471 155 436 190 394 190 c 0
 352 190 316 155 316 113 c 2
 316 -23 l 1
 243 -23 l 1
EndSplineSet
Validated: 1
EndChar

StartChar: s
Encoding: 115 115 9
Width: 788
Flags: HW
HStem: 240 113<469.419 556.595>
VStem: 337 113<392.945 510>
LayerCount: 2
Fore
SplineSet
71 413 m 0
 62 441 59 468 59 493 c 0
 59 552 78 603 93 631 c 0
 97 638 100 643 105 649 c 1
 189 573 l 1
 186 567 184 557 180 545 c 0
 176 530 172 512 172 493 c 0
 172 447 190 422 196 414 c 0
 222 379 263 359 291 359 c 0
 298 359 305 360 310 363 c 0
 316 367 323 376 329 392 c 0
 336 411 337 505 337 510 c 1
 450 510 l 1
 450 478 462 367 478 357 c 0
 482 355 487 353 496 353 c 0
 536 353 593 391 609 441 c 0
 614 457 616 472 616 487 c 0
 616 534 595 570 594 572 c 1
 598 567 l 1
 682 643 l 1
 687 638 687 635 689 633 c 0
 697 620 705 604 708 596 c 0
 724 556 729 519 729 487 c 0
 729 453 723 426 717 407 c 0
 695 337 642 295 616 278 c 0
 558 240 508 240 496 240 c 0
 436 240 406 271 394 283 c 1
 361 253 318 246 291 246 c 0
 239 246 196 268 172 284 c 0
 105 328 80 386 71 413 c 0
594 572 m 1
 594 572 l 1
 594 572 l 1
EndSplineSet
Validated: 1
EndChar

StartChar: b
Encoding: 98 98 10
Width: 788
Flags: HW
HStem: 13 79<443.535 516.32> 329 126<112 677>
VStem: 354 79<119.648 202>
LayerCount: 2
Fore
SplineSet
112 329 m 1
 112 455 l 1
 677 455 l 1
 677 329 l 1
 112 329 l 1
168 134 m 0
 162 154 159 173 159 191 c 0
 159 233 173 267 183 287 c 0
 186 292 188 296 192 300 c 1
 251 247 l 1
 249 243 247 235 244 226 c 0
 241 216 238 203 238 190 c 0
 238 158 251 140 255 135 c 0
 273 111 303 97 322 97 c 0
 327 97 332 98 335 100 c 0
 339 103 344 108 348 119 c 0
 353 132 354 199 354 202 c 1
 433 202 l 1
 433 179 440 102 452 95 c 0
 455 93 459 92 465 92 c 0
 493 92 533 119 544 154 c 0
 547 165 549 176 549 186 c 0
 549 220 534 245 534 246 c 1
 537 242 l 1
 596 295 l 1
 599 291 600 290 601 288 c 0
 607 279 612 268 614 262 c 0
 625 234 629 209 629 187 c 0
 629 163 624 144 620 130 c 0
 604 81 567 52 549 40 c 0
 508 13 473 13 465 13 c 0
 423 13 402 34 394 43 c 1
 371 22 341 17 322 17 c 0
 286 17 255 33 238 44 c 0
 191 75 174 115 168 134 c 0
EndSplineSet
Validated: 1
EndChar

StartChar: v
Encoding: 118 118 11
Width: 788
Flags: HW
HStem: 329 126<112 677> 498 79<443.535 516.32>
VStem: 354 79<605.648 688>
LayerCount: 2
Fore
SplineSet
112 329 m 1
 112 455 l 1
 677 455 l 1
 677 329 l 1
 112 329 l 1
168 620 m 0
 162 640 159 659 159 677 c 0
 159 718 173 752 183 772 c 0
 186 777 188 781 192 785 c 1
 251 732 l 1
 249 728 247 721 244 712 c 0
 241 702 238 689 238 676 c 0
 238 644 251 625 255 620 c 0
 273 596 303 582 322 582 c 0
 327 582 332 583 335 585 c 0
 339 588 344 594 348 605 c 0
 353 618 354 685 354 688 c 1
 433 688 l 1
 433 665 440 587 452 580 c 0
 455 578 459 577 465 577 c 0
 493 577 533 604 544 639 c 0
 547 650 549 661 549 671 c 0
 549 705 534 730 534 731 c 1
 537 727 l 1
 596 780 l 1
 599 776 600 776 601 774 c 0
 607 765 612 754 614 748 c 0
 625 720 629 695 629 673 c 0
 629 649 624 629 620 615 c 0
 604 566 567 537 549 525 c 0
 508 498 473 498 465 498 c 0
 423 498 402 519 394 528 c 1
 371 507 341 503 322 503 c 0
 286 503 255 519 238 530 c 0
 191 561 174 601 168 620 c 0
EndSplineSet
Validated: 1
EndChar

StartChar: c
Encoding: 99 99 12
Width: 788
Flags: HW
HStem: 29 21G<334 453> 268 119<153.745 245.661 542.745 634.661> 489 126<102 334 453 686> 747 20G<334 453> 747 20G<334 453>
VStem: 140 119<281.745 373.661> 334 119<29 489 615 767> 529 119<281.745 373.661>
LayerCount: 2
Fore
SplineSet
453 616 m 1024xe7
102 489 m 1
 102 615 l 1
 334 615 l 1
 334 767 l 1
 453 767 l 1xf7
 453 615 l 1
 686 615 l 1
 686 489 l 1
 453 489 l 1
 453 29 l 1
 334 29 l 1
 334 489 l 1
 102 489 l 1
140 328 m 0
 140 361 167 387 200 387 c 0
 233 387 259 361 259 328 c 0
 259 295 233 268 200 268 c 0
 167 268 140 295 140 328 c 0
529 328 m 0
 529 361 556 387 589 387 c 0
 622 387 648 361 648 328 c 0
 648 295 622 268 589 268 c 0
 556 268 529 295 529 328 c 0
EndSplineSet
Validated: 1
EndChar

StartChar: u
Encoding: 117 117 13
Width: 788
Flags: HW
HStem: 327 126<102 686> 720 73<339.229 446.744>
VStem: 243 73<644 695.115> 471 73<644 695.115>
LayerCount: 2
Fore
SplineSet
102 327 m 1
 102 453 l 1
 686 453 l 1
 686 327 l 1
 102 327 l 1
243 507 m 1
 243 644 l 2
 243 726 312 793 394 793 c 0
 476 793 544 726 544 644 c 2
 544 507 l 1
 471 507 l 1
 471 644 l 2
 471 686 436 720 394 720 c 0
 352 720 316 686 316 644 c 2
 316 507 l 1
 243 507 l 1
EndSplineSet
Validated: 1
EndChar

StartChar: f
Encoding: 102 102 14
Width: 788
Flags: HW
HStem: 108 118<346.456 440.161> 327 126<102 686> 720 73<339.229 446.744>
VStem: 243 73<644 695.115> 334 119<121.339 212.661> 471 73<644 695.115>
CounterMasks: 1 1c
LayerCount: 2
Fore
SplineSet
102 327 m 1
 102 453 l 1
 686 453 l 1
 686 327 l 1
 102 327 l 1
243 507 m 1
 243 644 l 2
 243 726 312 793 394 793 c 0
 476 793 544 726 544 644 c 2
 544 507 l 1
 471 507 l 1
 471 644 l 2
 471 686 436 720 394 720 c 0
 352 720 316 686 316 644 c 2
 316 507 l 1
 243 507 l 1
334 167 m 0
 334 200 360 226 393 226 c 0
 426 226 453 200 453 167 c 0
 453 134 426 108 393 108 c 0
 360 108 334 134 334 167 c 0
EndSplineSet
Validated: 1
EndChar

StartChar: l
Encoding: 108 108 15
Width: 788
Flags: HW
HStem: 197 72<341.621 446.08> 327 126<102 686> 557 119<347.745 439.661>
VStem: 243 73<120 171.992> 334 119<570.339 662.255> 471 73<120 171.992>
CounterMasks: 1 1c
LayerCount: 2
Fore
SplineSet
334 616 m 0
 334 649 361 676 394 676 c 0
 427 676 453 649 453 616 c 0
 453 583 427 557 394 557 c 0
 361 557 334 583 334 616 c 0
686 327 m 1
 102 327 l 1
 102 453 l 1
 686 453 l 1
 686 327 l 1
243 121 m 2
 243 203 312 269 394 269 c 0
 476 269 544 203 544 121 c 2
 544 -16 l 1
 471 -16 l 1
 471 120 l 2
 471 162 436 197 394 197 c 0
 352 197 316 162 316 120 c 2
 316 -16 l 1
 243 -16 l 1
 243 121 l 2
EndSplineSet
Validated: 1
EndChar

StartChar: m
Encoding: 109 109 16
Width: 788
Flags: HW
HStem: 29 21G<334 453> 489 126<102 334 453 686> 747 20G<334 453> 747 20G<334 453>
VStem: 334 119<29 489 615 767>
LayerCount: 2
Fore
SplineSet
453 616 m 1024xc8
102 489 m 1
 102 615 l 1
 334 615 l 1
 334 767 l 1
 453 767 l 1xe8
 453 615 l 1
 686 615 l 1
 686 489 l 1
 453 489 l 1
 453 29 l 1
 334 29 l 1
 334 489 l 1
 102 489 l 1
EndSplineSet
Validated: 1
EndChar

StartChar: g
Encoding: 103 103 17
Width: 788
Flags: HW
HStem: 29 21G<334 453> 268 119<542.745 634.661> 489 126<102 334 453 686> 747 20G<334 453> 747 20G<334 453>
VStem: 334 119<29 489 615 767> 529 119<281.745 373.661>
LayerCount: 2
Fore
SplineSet
453 616 m 1024xe6
102 489 m 1
 102 615 l 1
 334 615 l 1
 334 767 l 1
 453 767 l 1xf6
 453 615 l 1
 686 615 l 1
 686 489 l 1
 453 489 l 1
 453 29 l 1
 334 29 l 1
 334 489 l 1
 102 489 l 1
529 328 m 0
 529 361 556 387 589 387 c 0
 622 387 648 361 648 328 c 0
 648 295 622 268 589 268 c 0
 556 268 529 295 529 328 c 0
EndSplineSet
Validated: 1
EndChar

StartChar: p
Encoding: 112 112 18
Width: 788
Flags: HW
HStem: 29 21G<334 453> 268 119<542.745 634.661> 489 126<102 334 453 686> 669 118<152.839 246.544> 747 20G<334 453> 747 20G<334 453>
VStem: 140 119<682.339 773.661> 334 119<29 489 615 767> 529 119<281.745 373.661>
LayerCount: 2
Fore
SplineSet
453 616 m 1024xe380
102 489 m 1
 102 615 l 1
 334 615 l 1
 334 767 l 1
 453 767 l 1xeb80
 453 615 l 1
 686 615 l 1
 686 489 l 1
 453 489 l 1
 453 29 l 1
 334 29 l 1
 334 489 l 1
 102 489 l 1
140 728 m 0
 140 761 167 787 200 787 c 0
 233 787 259 761 259 728 c 0
 259 695 233 669 200 669 c 0xf380
 167 669 140 695 140 728 c 0
529 328 m 0
 529 361 556 387 589 387 c 0
 622 387 648 361 648 328 c 0
 648 295 622 268 589 268 c 0
 556 268 529 295 529 328 c 0
EndSplineSet
Validated: 1
EndChar

StartChar: w
Encoding: 119 119 19
Width: 788
Flags: HW
HStem: 29 21G<334 453> 489 126<102 334 453 686> 669 118<152.839 246.544> 747 20G<334 453> 747 20G<334 453>
VStem: 140 119<682.339 773.661> 334 119<29 489 615 767>
LayerCount: 2
Fore
SplineSet
453 616 m 1024xc6
102 489 m 1
 102 615 l 1
 334 615 l 1
 334 767 l 1
 453 767 l 1xd6
 453 615 l 1
 686 615 l 1
 686 489 l 1
 453 489 l 1
 453 29 l 1
 334 29 l 1
 334 489 l 1
 102 489 l 1
140 728 m 0
 140 761 167 787 200 787 c 0
 233 787 259 761 259 728 c 0
 259 695 233 669 200 669 c 0xe6
 167 669 140 695 140 728 c 0
EndSplineSet
Validated: 1
EndChar

StartChar: k
Encoding: 107 107 20
Width: 788
Flags: HW
HStem: 29 21G<334 453> 268 119<153.745 245.661> 489 126<102 334 453 686> 747 20G<334 453> 747 20G<334 453>
VStem: 140 119<281.745 373.661> 334 119<29 489 615 767>
LayerCount: 2
Fore
SplineSet
453 616 m 1024xe6
102 489 m 1
 102 615 l 1
 334 615 l 1
 334 767 l 1
 453 767 l 1xf6
 453 615 l 1
 686 615 l 1
 686 489 l 1
 453 489 l 1
 453 29 l 1
 334 29 l 1
 334 489 l 1
 102 489 l 1
140 328 m 0
 140 361 167 387 200 387 c 0
 233 387 259 361 259 328 c 0
 259 295 233 268 200 268 c 0
 167 268 140 295 140 328 c 0
EndSplineSet
Validated: 1
EndChar

StartChar: x
Encoding: 120 120 21
Width: 732
Flags: HW
HStem: 29 21G<334 453> 340 47<157.878 241.683> 489 126<102 334 453 686> 747 20G<334 453> 747 20G<334 453>
VStem: 102 47<290 330.499> 250 47<290 330.499> 334 119<29 489 615 767>
LayerCount: 2
Fore
SplineSet
453 616 m 1024xe7
102 489 m 1
 102 615 l 1
 334 615 l 1
 334 767 l 1
 453 767 l 1xf7
 453 615 l 1
 686 615 l 1
 686 489 l 1
 453 489 l 1
 453 29 l 1
 334 29 l 1
 334 489 l 1
 102 489 l 1
102 202 m 1
 102 291 l 2
 102 344 147 387 200 387 c 0
 253 387 297 344 297 291 c 2
 297 202 l 1
 250 202 l 1
 250 290 l 2
 250 318 228 340 200 340 c 0
 172 340 149 318 149 290 c 2
 149 202 l 1
 102 202 l 1
EndSplineSet
Validated: 1
EndChar

StartChar: z
Encoding: 122 122 22
Width: 732
Flags: HW
HStem: 29 21G<334 453> 340 47<546.878 630.683> 489 126<102 334 453 686> 747 20G<334 453> 747 20G<334 453>
VStem: 334 119<29 489 615 767> 491 47<202 330.499> 639 47<202 330.499>
LayerCount: 2
Fore
SplineSet
453 616 m 1024xe7
102 489 m 1
 102 615 l 1
 334 615 l 1
 334 767 l 1
 453 767 l 1xf7
 453 615 l 1
 686 615 l 1
 686 489 l 1
 453 489 l 1
 453 29 l 1
 334 29 l 1
 334 489 l 1
 102 489 l 1
491 202 m 1
 491 291 l 2
 491 344 536 387 589 387 c 0
 642 387 686 344 686 291 c 2
 686 202 l 1
 639 202 l 1
 639 290 l 2
 639 318 617 340 589 340 c 0
 561 340 538 318 538 290 c 2
 538 202 l 1
 491 202 l 1
EndSplineSet
Validated: 1
EndChar

StartChar: o
Encoding: 111 111 23
Width: 1177
Flags: HW
HStem: 29 21G<334 453 725 844> 327 126<102 334 453 725 844 1075> 747 20G<334 453 725 844> 747 20G<334 453 725 844>
VStem: 334 119<29 327 453 767> 725 119<29 327 453 767>
LayerCount: 2
Fore
SplineSet
453 616 m 1024xcc
102 327 m 1
 102 453 l 1
 334 453 l 1
 334 767 l 1
 453 767 l 1
 453 453 l 1
 725 453 l 1
 725 767 l 1
 844 767 l 1xec
 844 453 l 1
 1075 453 l 1
 1075 327 l 1
 844 327 l 1
 844 29 l 1
 725 29 l 1
 725 327 l 1
 453 327 l 1
 453 29 l 1
 334 29 l 1
 334 327 l 1
 102 327 l 1
EndSplineSet
Validated: 1
EndChar

StartChar: y
Encoding: 121 121 24
Width: 1177
Flags: HW
HStem: 29 21G<334 453 725 844> 108 118<152.839 246.544> 327 126<102 334 453 725 844 1075> 747 20G<334 453 725 844> 747 20G<334 453 725 844>
VStem: 140 119<121.339 212.661> 334 119<29 327 453 767> 725 119<29 327 453 767>
LayerCount: 2
Fore
SplineSet
453 616 m 1024xe7
102 327 m 1
 102 453 l 1
 334 453 l 1
 334 767 l 1
 453 767 l 1
 453 453 l 1
 725 453 l 1
 725 767 l 1
 844 767 l 1xf7
 844 453 l 1
 1075 453 l 1
 1075 327 l 1
 844 327 l 1
 844 29 l 1
 725 29 l 1
 725 327 l 1
 453 327 l 1
 453 29 l 1
 334 29 l 1
 334 327 l 1
 102 327 l 1
140 167 m 0
 140 200 167 226 200 226 c 0
 233 226 259 200 259 167 c 0
 259 134 233 108 200 108 c 0
 167 108 140 134 140 167 c 0
EndSplineSet
Validated: 1
EndChar

StartChar: j
Encoding: 106 106 25
Width: 1177
Flags: HW
HStem: 29 21G<334 453 725 844> 327 126<102 334 453 725 844 1075> 556 119<153.745 245.661> 747 20G<334 453 725 844> 747 20G<334 453 725 844>
VStem: 140 119<569.339 661.255> 334 119<29 327 453 767> 725 119<29 327 453 767>
LayerCount: 2
Fore
SplineSet
453 616 m 1024xe7
102 327 m 1
 102 453 l 1
 334 453 l 1
 334 767 l 1
 453 767 l 1
 453 453 l 1
 725 453 l 1
 725 767 l 1
 844 767 l 1xf7
 844 453 l 1
 1075 453 l 1
 1075 327 l 1
 844 327 l 1
 844 29 l 1
 725 29 l 1
 725 327 l 1
 453 327 l 1
 453 29 l 1
 334 29 l 1
 334 327 l 1
 102 327 l 1
140 615 m 0
 140 648 167 675 200 675 c 0
 233 675 259 648 259 615 c 0
 259 582 233 556 200 556 c 0
 167 556 140 582 140 615 c 0
EndSplineSet
Validated: 1
EndChar

StartChar: q
Encoding: 113 113 26
Width: 1177
Flags: HW
HStem: 29 21G<334 453 725 844> 108 118<541.839 635.544> 327 126<102 334 453 725 844 1075> 747 20G<334 453 725 844> 747 20G<334 453 725 844>
VStem: 334 119<29 327 453 767> 529 119<121.339 212.661> 725 119<29 327 453 767>
LayerCount: 2
Fore
SplineSet
453 616 m 1024xe7
102 327 m 1
 102 453 l 1
 334 453 l 1
 334 767 l 1
 453 767 l 1
 453 453 l 1
 725 453 l 1
 725 767 l 1
 844 767 l 1xf7
 844 453 l 1
 1075 453 l 1
 1075 327 l 1
 844 327 l 1
 844 29 l 1
 725 29 l 1
 725 327 l 1
 453 327 l 1
 453 29 l 1
 334 29 l 1
 334 327 l 1
 102 327 l 1
529 167 m 0
 529 200 556 226 589 226 c 0
 622 226 648 200 648 167 c 0
 648 134 622 108 589 108 c 0
 556 108 529 134 529 167 c 0
EndSplineSet
Validated: 1
EndChar

StartChar: period
Encoding: 46 46 27
Width: 1177
Flags: HW
HStem: 29 21G<334 453 725 844> 327 126<102 334 453 725 844 1075> 556 119<153.745 245.661 542.745 634.661 932.339 1023.66> 747 20G<334 453 725 844> 747 20G<334 453 725 844>
VStem: 140 119<569.339 661.255> 334 119<29 327 453 767> 529 119<569.339 661.255> 725 119<29 327 453 767> 919 118<568.456 662.161>
LayerCount: 2
Fore
SplineSet
453 616 m 1024xe7c0
102 327 m 1
 102 453 l 1
 334 453 l 1
 334 767 l 1
 453 767 l 1
 453 453 l 1
 725 453 l 1
 725 767 l 1
 844 767 l 1xf7c0
 844 453 l 1
 1075 453 l 1
 1075 327 l 1
 844 327 l 1
 844 29 l 1
 725 29 l 1
 725 327 l 1
 453 327 l 1
 453 29 l 1
 334 29 l 1
 334 327 l 1
 102 327 l 1
140 615 m 0
 140 648 167 675 200 675 c 0
 233 675 259 648 259 615 c 0
 259 582 233 556 200 556 c 0
 167 556 140 582 140 615 c 0
529 615 m 0
 529 648 556 675 589 675 c 0
 622 675 648 648 648 615 c 0
 648 582 622 556 589 556 c 0
 556 556 529 582 529 615 c 0
919 615 m 0
 919 648 945 675 978 675 c 0
 1011 675 1037 648 1037 615 c 0
 1037 582 1011 556 978 556 c 0
 945 556 919 582 919 615 c 0
EndSplineSet
Validated: 1
EndChar

StartChar: A
Encoding: 65 65 28
Width: 788
Flags: HW
HStem: 329 126<112 677> 557 119<347.745 439.661>
VStem: 334 119<570.339 662.255>
LayerCount: 2
Fore
SplineSet
112 329 m 1
 112 455 l 1
 677 455 l 1
 677 329 l 1
 112 329 l 1
334 616 m 0
 334 649 361 676 394 676 c 0
 427 676 453 649 453 616 c 0
 453 583 427 557 394 557 c 0
 361 557 334 583 334 616 c 0
EndSplineSet
Validated: 1
EndChar

StartChar: B
Encoding: 66 66 29
Width: 788
Flags: HW
HStem: 13 79<443.535 516.32> 329 126<112 677>
VStem: 354 79<119.648 202>
LayerCount: 2
Fore
SplineSet
112 329 m 1
 112 455 l 1
 677 455 l 1
 677 329 l 1
 112 329 l 1
168 134 m 0
 162 154 159 173 159 191 c 0
 159 233 173 267 183 287 c 0
 186 292 188 296 192 300 c 1
 251 247 l 1
 249 243 247 235 244 226 c 0
 241 216 238 203 238 190 c 0
 238 158 251 140 255 135 c 0
 273 111 303 97 322 97 c 0
 327 97 332 98 335 100 c 0
 339 103 344 108 348 119 c 0
 353 132 354 199 354 202 c 1
 433 202 l 1
 433 179 440 102 452 95 c 0
 455 93 459 92 465 92 c 0
 493 92 533 119 544 154 c 0
 547 165 549 176 549 186 c 0
 549 220 534 245 534 246 c 1
 537 242 l 1
 596 295 l 1
 599 291 600 290 601 288 c 0
 607 279 612 268 614 262 c 0
 625 234 629 209 629 187 c 0
 629 163 624 144 620 130 c 0
 604 81 567 52 549 40 c 0
 508 13 473 13 465 13 c 0
 423 13 402 34 394 43 c 1
 371 22 341 17 322 17 c 0
 286 17 255 33 238 44 c 0
 191 75 174 115 168 134 c 0
EndSplineSet
Validated: 1
EndChar

StartChar: C
Encoding: 67 67 30
Width: 788
Flags: HW
HStem: 29 21G<334 453> 268 119<153.745 245.661 542.745 634.661> 489 126<102 334 453 686> 747 20G<334 453> 747 20G<334 453>
VStem: 140 119<281.745 373.661> 334 119<29 489 615 767> 529 119<281.745 373.661>
LayerCount: 2
Fore
SplineSet
453 616 m 1024xe7
102 489 m 1
 102 615 l 1
 334 615 l 1
 334 767 l 1
 453 767 l 1xf7
 453 615 l 1
 686 615 l 1
 686 489 l 1
 453 489 l 1
 453 29 l 1
 334 29 l 1
 334 489 l 1
 102 489 l 1
140 328 m 0
 140 361 167 387 200 387 c 0
 233 387 259 361 259 328 c 0
 259 295 233 268 200 268 c 0
 167 268 140 295 140 328 c 0
529 328 m 0
 529 361 556 387 589 387 c 0
 622 387 648 361 648 328 c 0
 648 295 622 268 589 268 c 0
 556 268 529 295 529 328 c 0
EndSplineSet
Validated: 1
EndChar

StartChar: D
Encoding: 68 68 31
Width: 788
Flags: HW
HStem: 190 72<341.621 446.08> 327 126<102 686>
VStem: 243 73<113 164.992> 471 73<113 164.992>
LayerCount: 2
Fore
SplineSet
102 327 m 1
 102 453 l 1
 686 453 l 1
 686 327 l 1
 102 327 l 1
243 -23 m 1
 243 114 l 2
 243 196 312 262 394 262 c 0
 476 262 544 196 544 114 c 2
 544 -23 l 1
 471 -23 l 1
 471 113 l 2
 471 155 436 190 394 190 c 0
 352 190 316 155 316 113 c 2
 316 -23 l 1
 243 -23 l 1
EndSplineSet
Validated: 1
EndChar

StartChar: E
Encoding: 69 69 32
Width: 409
Flags: HW
HStem: 328 118<178.456 272.161>
VStem: 166 119<341.339 432.661>
LayerCount: 2
Fore
SplineSet
166 387 m 0
 166 420 192 446 225 446 c 0
 258 446 285 420 285 387 c 0
 285 354 258 328 225 328 c 0
 192 328 166 354 166 387 c 0
EndSplineSet
Validated: 1
EndChar

StartChar: F
Encoding: 70 70 33
Width: 788
Flags: HW
HStem: 108 118<346.456 440.161> 327 126<102 686> 720 73<339.229 446.744>
VStem: 243 73<644 695.115> 334 119<121.339 212.661> 471 73<644 695.115>
CounterMasks: 1 1c
LayerCount: 2
Fore
SplineSet
102 327 m 1
 102 453 l 1
 686 453 l 1
 686 327 l 1
 102 327 l 1
243 507 m 1
 243 644 l 2
 243 726 312 793 394 793 c 0
 476 793 544 726 544 644 c 2
 544 507 l 1
 471 507 l 1
 471 644 l 2
 471 686 436 720 394 720 c 0
 352 720 316 686 316 644 c 2
 316 507 l 1
 243 507 l 1
334 167 m 0
 334 200 360 226 393 226 c 0
 426 226 453 200 453 167 c 0
 453 134 426 108 393 108 c 0
 360 108 334 134 334 167 c 0
EndSplineSet
Validated: 1
EndChar

StartChar: G
Encoding: 71 71 34
Width: 788
Flags: HW
HStem: 29 21G<334 453> 268 119<542.745 634.661> 489 126<102 334 453 686> 747 20G<334 453> 747 20G<334 453>
VStem: 334 119<29 489 615 767> 529 119<281.745 373.661>
LayerCount: 2
Fore
SplineSet
453 616 m 1024xe6
102 489 m 1
 102 615 l 1
 334 615 l 1
 334 767 l 1
 453 767 l 1xf6
 453 615 l 1
 686 615 l 1
 686 489 l 1
 453 489 l 1
 453 29 l 1
 334 29 l 1
 334 489 l 1
 102 489 l 1
529 328 m 0
 529 361 556 387 589 387 c 0
 622 387 648 361 648 328 c 0
 648 295 622 268 589 268 c 0
 556 268 529 295 529 328 c 0
EndSplineSet
Validated: 1
EndChar

StartChar: H
Encoding: 72 72 35
Width: 614
Flags: HW
HStem: 744 73<252.72 380.733>
LayerCount: 2
Fore
SplineSet
70 86 m 1
 84 96 171 158 257 244 c 1
 134 383 109 493 109 563 c 0
 109 596 114 620 118 634 c 0
 135 696 168 755 221 789 c 0
 248 806 280 817 314 817 c 0
 416 817 491 735 512 654 c 0
 518 631 521 608 521 585 c 0
 521 449 426 322 357 244 c 1
 412 190 480 137 557 87 c 1
 517 26 l 1
 437 78 366 133 307 191 c 1
 216 100 128 37 112 26 c 1
 70 86 l 1
188 615 m 0
 183 598 181 580 181 563 c 0
 181 441 283 324 307 297 c 1
 415 420 447 515 447 585 c 0
 447 604 445 621 441 636 c 0
 430 678 386 744 314 744 c 0
 294 744 277 738 261 728 c 0
 229 707 201 665 188 615 c 0
EndSplineSet
Validated: 1
EndChar

StartChar: I
Encoding: 73 73 36
Width: 614
Flags: HW
HStem: 680 103<242.408 371.595>
VStem: 93 103<571 634.012> 418 104<571 634.012>
LayerCount: 2
Fore
SplineSet
93 376 m 1
 93 572 l 2
 93 689 190 783 307 783 c 0
 424 783 521 689 522 572 c 2
 522 376 l 1
 418 376 l 1
 418 571 l 2
 417 631 368 680 307 680 c 0
 246 680 197 631 196 571 c 2
 196 376 l 1
 93 376 l 1
EndSplineSet
Validated: 1
EndChar

StartChar: J
Encoding: 74 74 37
Width: 1177
Flags: HW
HStem: 29 21G<334 453 725 844> 327 126<102 334 453 725 844 1075> 556 119<153.745 245.661> 747 20G<334 453 725 844> 747 20G<334 453 725 844>
VStem: 140 119<569.339 661.255> 334 119<29 327 453 767> 725 119<29 327 453 767>
LayerCount: 2
Fore
SplineSet
453 616 m 1024xe7
102 327 m 1
 102 453 l 1
 334 453 l 1
 334 767 l 1
 453 767 l 1
 453 453 l 1
 725 453 l 1
 725 767 l 1
 844 767 l 1xf7
 844 453 l 1
 1075 453 l 1
 1075 327 l 1
 844 327 l 1
 844 29 l 1
 725 29 l 1
 725 327 l 1
 453 327 l 1
 453 29 l 1
 334 29 l 1
 334 327 l 1
 102 327 l 1
140 615 m 0
 140 648 167 675 200 675 c 0
 233 675 259 648 259 615 c 0
 259 582 233 556 200 556 c 0
 167 556 140 582 140 615 c 0
EndSplineSet
Validated: 1
EndChar

StartChar: K
Encoding: 75 75 38
Width: 788
Flags: HW
HStem: 29 21G<334 453> 268 119<153.745 245.661> 489 126<102 334 453 686> 747 20G<334 453> 747 20G<334 453>
VStem: 140 119<281.745 373.661> 334 119<29 489 615 767>
LayerCount: 2
Fore
SplineSet
453 616 m 1024xe6
102 489 m 1
 102 615 l 1
 334 615 l 1
 334 767 l 1
 453 767 l 1xf6
 453 615 l 1
 686 615 l 1
 686 489 l 1
 453 489 l 1
 453 29 l 1
 334 29 l 1
 334 489 l 1
 102 489 l 1
140 328 m 0
 140 361 167 387 200 387 c 0
 233 387 259 361 259 328 c 0
 259 295 233 268 200 268 c 0
 167 268 140 295 140 328 c 0
EndSplineSet
Validated: 1
EndChar

StartChar: L
Encoding: 76 76 39
Width: 788
Flags: HW
HStem: 197 72<341.621 446.08> 327 126<102 686> 557 119<347.745 439.661>
VStem: 243 73<120 171.992> 334 119<570.339 662.255> 471 73<120 171.992>
CounterMasks: 1 1c
LayerCount: 2
Fore
SplineSet
334 616 m 0
 334 649 361 676 394 676 c 0
 427 676 453 649 453 616 c 0
 453 583 427 557 394 557 c 0
 361 557 334 583 334 616 c 0
686 327 m 1
 102 327 l 1
 102 453 l 1
 686 453 l 1
 686 327 l 1
243 121 m 2
 243 203 312 269 394 269 c 0
 476 269 544 203 544 121 c 2
 544 -16 l 1
 471 -16 l 1
 471 120 l 2
 471 162 436 197 394 197 c 0
 352 197 316 162 316 120 c 2
 316 -16 l 1
 243 -16 l 1
 243 121 l 2
EndSplineSet
Validated: 1
EndChar

StartChar: M
Encoding: 77 77 40
Width: 788
Flags: HW
HStem: 29 21G<334 453> 489 126<102 334 453 686> 747 20G<334 453> 747 20G<334 453>
VStem: 334 119<29 489 615 767>
LayerCount: 2
Fore
SplineSet
453 616 m 1024xc8
102 489 m 1
 102 615 l 1
 334 615 l 1
 334 767 l 1
 453 767 l 1xe8
 453 615 l 1
 686 615 l 1
 686 489 l 1
 453 489 l 1
 453 29 l 1
 334 29 l 1
 334 489 l 1
 102 489 l 1
EndSplineSet
Validated: 1
EndChar

StartChar: N
Encoding: 78 78 41
Width: 788
Flags: HW
HStem: 108 118<346.839 440.544> 329 126<112 677>
VStem: 334 119<121.339 212.661>
LayerCount: 2
Fore
SplineSet
112 329 m 1
 112 455 l 1
 677 455 l 1
 677 329 l 1
 112 329 l 1
334 167 m 0
 334 200 361 226 394 226 c 0
 427 226 453 200 453 167 c 0
 453 134 427 108 394 108 c 0
 361 108 334 134 334 167 c 0
EndSplineSet
Validated: 1
EndChar

StartChar: O
Encoding: 79 79 42
Width: 1177
Flags: HW
HStem: 29 21G<334 453 725 844> 327 126<102 334 453 725 844 1075> 747 20G<334 453 725 844> 747 20G<334 453 725 844>
VStem: 334 119<29 327 453 767> 725 119<29 327 453 767>
LayerCount: 2
Fore
SplineSet
453 616 m 1024xcc
102 327 m 1
 102 453 l 1
 334 453 l 1
 334 767 l 1
 453 767 l 1
 453 453 l 1
 725 453 l 1
 725 767 l 1
 844 767 l 1xec
 844 453 l 1
 1075 453 l 1
 1075 327 l 1
 844 327 l 1
 844 29 l 1
 725 29 l 1
 725 327 l 1
 453 327 l 1
 453 29 l 1
 334 29 l 1
 334 327 l 1
 102 327 l 1
EndSplineSet
Validated: 1
EndChar

StartChar: P
Encoding: 80 80 43
Width: 788
Flags: HW
HStem: 29 21G<334 453> 268 119<542.745 634.661> 489 126<102 334 453 686> 669 118<152.839 246.544> 747 20G<334 453> 747 20G<334 453>
VStem: 140 119<682.339 773.661> 334 119<29 489 615 767> 529 119<281.745 373.661>
LayerCount: 2
Fore
SplineSet
453 616 m 1024xe380
102 489 m 1
 102 615 l 1
 334 615 l 1
 334 767 l 1
 453 767 l 1xeb80
 453 615 l 1
 686 615 l 1
 686 489 l 1
 453 489 l 1
 453 29 l 1
 334 29 l 1
 334 489 l 1
 102 489 l 1
140 728 m 0
 140 761 167 787 200 787 c 0
 233 787 259 761 259 728 c 0
 259 695 233 669 200 669 c 0xf380
 167 669 140 695 140 728 c 0
529 328 m 0
 529 361 556 387 589 387 c 0
 622 387 648 361 648 328 c 0
 648 295 622 268 589 268 c 0
 556 268 529 295 529 328 c 0
EndSplineSet
Validated: 1
EndChar

StartChar: Q
Encoding: 81 81 44
Width: 1177
Flags: HW
HStem: 29 21G<334 453 725 844> 108 118<541.839 635.544> 327 126<102 334 453 725 844 1075> 747 20G<334 453 725 844> 747 20G<334 453 725 844>
VStem: 334 119<29 327 453 767> 529 119<121.339 212.661> 725 119<29 327 453 767>
LayerCount: 2
Fore
SplineSet
453 616 m 1024xe7
102 327 m 1
 102 453 l 1
 334 453 l 1
 334 767 l 1
 453 767 l 1
 453 453 l 1
 725 453 l 1
 725 767 l 1
 844 767 l 1xf7
 844 453 l 1
 1075 453 l 1
 1075 327 l 1
 844 327 l 1
 844 29 l 1
 725 29 l 1
 725 327 l 1
 453 327 l 1
 453 29 l 1
 334 29 l 1
 334 327 l 1
 102 327 l 1
529 167 m 0
 529 200 556 226 589 226 c 0
 622 226 648 200 648 167 c 0
 648 134 622 108 589 108 c 0
 556 108 529 134 529 167 c 0
EndSplineSet
Validated: 1
EndChar

StartChar: R
Encoding: 82 82 45
Width: 788
Flags: HW
HStem: 108 118<346.839 440.544> 327 126<102 686> 556 119<347.745 439.661>
VStem: 334 119<121.339 212.661 569.339 661.255>
LayerCount: 2
Fore
SplineSet
102 327 m 1
 102 453 l 1
 686 453 l 1
 686 327 l 1
 102 327 l 1
334 615 m 0
 334 648 361 675 394 675 c 0
 427 675 453 648 453 615 c 0
 453 582 427 556 394 556 c 0
 361 556 334 582 334 615 c 0
334 167 m 0
 334 200 361 226 394 226 c 0
 427 226 453 200 453 167 c 0
 453 134 427 108 394 108 c 0
 361 108 334 134 334 167 c 0
EndSplineSet
Validated: 1
EndChar

StartChar: S
Encoding: 83 83 46
Width: 788
Flags: HW
HStem: 240 113<469.419 556.595>
VStem: 337 113<392.945 510>
LayerCount: 2
Fore
SplineSet
71 413 m 0
 62 441 59 468 59 493 c 0
 59 552 78 603 93 631 c 0
 97 638 100 643 105 649 c 1
 189 573 l 1
 186 567 184 557 180 545 c 0
 176 530 172 512 172 493 c 0
 172 447 190 422 196 414 c 0
 222 379 263 359 291 359 c 0
 298 359 305 360 310 363 c 0
 316 367 323 376 329 392 c 0
 336 411 337 505 337 510 c 1
 450 510 l 1
 450 478 462 367 478 357 c 0
 482 355 487 353 496 353 c 0
 536 353 593 391 609 441 c 0
 614 457 616 472 616 487 c 0
 616 534 595 570 594 572 c 1
 598 567 l 1
 682 643 l 1
 687 638 687 635 689 633 c 0
 697 620 705 604 708 596 c 0
 724 556 729 519 729 487 c 0
 729 453 723 426 717 407 c 0
 695 337 642 295 616 278 c 0
 558 240 508 240 496 240 c 0
 436 240 406 271 394 283 c 1
 361 253 318 246 291 246 c 0
 239 246 196 268 172 284 c 0
 105 328 80 386 71 413 c 0
594 572 m 1
 594 572 l 1
 594 572 l 1
EndSplineSet
Validated: 1
EndChar

StartChar: T
Encoding: 84 84 47
Width: 788
Flags: HW
HStem: 327 126<102 686>
LayerCount: 2
Fore
SplineSet
102 327 m 1
 102 453 l 1
 686 453 l 1
 686 327 l 1
 102 327 l 1
EndSplineSet
Validated: 1
EndChar

StartChar: U
Encoding: 85 85 48
Width: 788
Flags: HW
HStem: 327 126<102 686> 720 73<339.229 446.744>
VStem: 243 73<644 695.115> 471 73<644 695.115>
LayerCount: 2
Fore
SplineSet
102 327 m 1
 102 453 l 1
 686 453 l 1
 686 327 l 1
 102 327 l 1
243 507 m 1
 243 644 l 2
 243 726 312 793 394 793 c 0
 476 793 544 726 544 644 c 2
 544 507 l 1
 471 507 l 1
 471 644 l 2
 471 686 436 720 394 720 c 0
 352 720 316 686 316 644 c 2
 316 507 l 1
 243 507 l 1
EndSplineSet
Validated: 1
EndChar

StartChar: V
Encoding: 86 86 49
Width: 788
Flags: HW
HStem: 329 126<112 677> 498 79<443.535 516.32>
VStem: 354 79<605.648 688>
LayerCount: 2
Fore
SplineSet
112 329 m 1
 112 455 l 1
 677 455 l 1
 677 329 l 1
 112 329 l 1
168 620 m 0
 162 640 159 659 159 677 c 0
 159 718 173 752 183 772 c 0
 186 777 188 781 192 785 c 1
 251 732 l 1
 249 728 247 721 244 712 c 0
 241 702 238 689 238 676 c 0
 238 644 251 625 255 620 c 0
 273 596 303 582 322 582 c 0
 327 582 332 583 335 585 c 0
 339 588 344 594 348 605 c 0
 353 618 354 685 354 688 c 1
 433 688 l 1
 433 665 440 587 452 580 c 0
 455 578 459 577 465 577 c 0
 493 577 533 604 544 639 c 0
 547 650 549 661 549 671 c 0
 549 705 534 730 534 731 c 1
 537 727 l 1
 596 780 l 1
 599 776 600 776 601 774 c 0
 607 765 612 754 614 748 c 0
 625 720 629 695 629 673 c 0
 629 649 624 629 620 615 c 0
 604 566 567 537 549 525 c 0
 508 498 473 498 465 498 c 0
 423 498 402 519 394 528 c 1
 371 507 341 503 322 503 c 0
 286 503 255 519 238 530 c 0
 191 561 174 601 168 620 c 0
EndSplineSet
Validated: 1
EndChar

StartChar: W
Encoding: 87 87 50
Width: 788
Flags: HW
HStem: 29 21G<334 453> 489 126<102 334 453 686> 669 118<152.839 246.544> 747 20G<334 453> 747 20G<334 453>
VStem: 140 119<682.339 773.661> 334 119<29 489 615 767>
LayerCount: 2
Fore
SplineSet
453 616 m 1024xc6
102 489 m 1
 102 615 l 1
 334 615 l 1
 334 767 l 1
 453 767 l 1xd6
 453 615 l 1
 686 615 l 1
 686 489 l 1
 453 489 l 1
 453 29 l 1
 334 29 l 1
 334 489 l 1
 102 489 l 1
140 728 m 0
 140 761 167 787 200 787 c 0
 233 787 259 761 259 728 c 0
 259 695 233 669 200 669 c 0xe6
 167 669 140 695 140 728 c 0
EndSplineSet
Validated: 1
EndChar

StartChar: X
Encoding: 88 88 51
Width: 732
Flags: HW
HStem: 29 21G<334 453> 340 47<157.878 241.683> 489 126<102 334 453 686> 747 20G<334 453> 747 20G<334 453>
VStem: 102 47<290 330.499> 250 47<290 330.499> 334 119<29 489 615 767>
LayerCount: 2
Fore
SplineSet
453 616 m 1024xe7
102 489 m 1
 102 615 l 1
 334 615 l 1
 334 767 l 1
 453 767 l 1xf7
 453 615 l 1
 686 615 l 1
 686 489 l 1
 453 489 l 1
 453 29 l 1
 334 29 l 1
 334 489 l 1
 102 489 l 1
102 202 m 1
 102 291 l 2
 102 344 147 387 200 387 c 0
 253 387 297 344 297 291 c 2
 297 202 l 1
 250 202 l 1
 250 290 l 2
 250 318 228 340 200 340 c 0
 172 340 149 318 149 290 c 2
 149 202 l 1
 102 202 l 1
EndSplineSet
Validated: 1
EndChar

StartChar: Y
Encoding: 89 89 52
Width: 1177
Flags: HW
HStem: 29 21G<334 453 725 844> 108 118<152.839 246.544> 327 126<102 334 453 725 844 1075> 747 20G<334 453 725 844> 747 20G<334 453 725 844>
VStem: 140 119<121.339 212.661> 334 119<29 327 453 767> 725 119<29 327 453 767>
LayerCount: 2
Fore
SplineSet
453 616 m 1024xe7
102 327 m 1
 102 453 l 1
 334 453 l 1
 334 767 l 1
 453 767 l 1
 453 453 l 1
 725 453 l 1
 725 767 l 1
 844 767 l 1xf7
 844 453 l 1
 1075 453 l 1
 1075 327 l 1
 844 327 l 1
 844 29 l 1
 725 29 l 1
 725 327 l 1
 453 327 l 1
 453 29 l 1
 334 29 l 1
 334 327 l 1
 102 327 l 1
140 167 m 0
 140 200 167 226 200 226 c 0
 233 226 259 200 259 167 c 0
 259 134 233 108 200 108 c 0
 167 108 140 134 140 167 c 0
EndSplineSet
Validated: 1
EndChar

StartChar: Z
Encoding: 90 90 53
Width: 732
Flags: HW
HStem: 29 21G<334 453> 340 47<546.878 630.683> 489 126<102 334 453 686> 747 20G<334 453> 747 20G<334 453>
VStem: 334 119<29 489 615 767> 491 47<202 330.499> 639 47<202 330.499>
LayerCount: 2
Fore
SplineSet
453 616 m 1024xe7
102 489 m 1
 102 615 l 1
 334 615 l 1
 334 767 l 1
 453 767 l 1xf7
 453 615 l 1
 686 615 l 1
 686 489 l 1
 453 489 l 1
 453 29 l 1
 334 29 l 1
 334 489 l 1
 102 489 l 1
491 202 m 1
 491 291 l 2
 491 344 536 387 589 387 c 0
 642 387 686 344 686 291 c 2
 686 202 l 1
 639 202 l 1
 639 290 l 2
 639 318 617 340 589 340 c 0
 561 340 538 318 538 290 c 2
 538 202 l 1
 491 202 l 1
EndSplineSet
Validated: 1
EndChar

StartChar: zero
Encoding: 48 48 54
Width: 1551
Flags: HW
HStem: 29 21G<334 453 589 708> 327 126<102 334 453 589 708 844 963 1099 1218 1449> 747 20G<334 453 589 708 844 963 1099 1218> 747 20G<334 453 589 708 844 963 1099 1218>
VStem: 334 119<29 327 453 767> 589 119<29 327 453 767> 844 119<27 327 453 767> 1099 119<27 327 453 767>
LayerCount: 2
Fore
SplineSet
453 616 m 1024xcf
102 327 m 1
 102 453 l 1
 334 453 l 1
 334 767 l 1
 453 767 l 1
 453 453 l 1
 589 453 l 1
 589 767 l 1
 708 767 l 1
 708 453 l 1
 844 453 l 1
 844 767 l 1
 963 767 l 1
 963 453 l 1
 1099 453 l 1
 1099 767 l 1
 1218 767 l 1xef
 1218 453 l 1
 1449 453 l 1
 1449 327 l 1
 1218 327 l 1
 1218 27 l 1
 1099 27 l 1
 1099 327 l 1
 963 327 l 1
 963 27 l 1
 844 27 l 1
 844 327 l 1
 708 327 l 1
 708 29 l 1
 589 29 l 1
 589 327 l 1
 453 327 l 1
 453 29 l 1
 334 29 l 1
 334 327 l 1
 102 327 l 1
EndSplineSet
Validated: 1
EndChar

StartChar: comma
Encoding: 44 44 55
Width: 1566
Flags: HW
HStem: 29 21G<334 453 725 844> 233 48<546.539 631.012> 327 126<102 334 453 725 844 1116.42 1235 1464> 747 20G<334 453 725 844> 747 20G<334 453 725 844>
VStem: 334 119<29 327 453 767> 491 47<95 223.673> 639 47<95 223.673> 725 119<29 327 453 767> 1116 119<27 327 453 765>
LayerCount: 2
Fore
SplineSet
453 616 m 1024xe7c0
102 327 m 1
 102 453 l 1
 334 453 l 1
 334 767 l 1
 453 767 l 1
 453 453 l 1
 725 453 l 1
 725 767 l 1
 844 767 l 1xf7c0
 844 453 l 1
 1116 453 l 1
 1116 765 l 1
 1235 765 l 1
 1235 453 l 1
 1464 453 l 1
 1464 327 l 1
 1235 327 l 1
 1235 27 l 1
 1117 27 l 1
 1117 327 l 1
 844 327 l 1
 844 29 l 1
 725 29 l 1
 725 327 l 1
 453 327 l 1
 453 29 l 1
 334 29 l 1
 334 327 l 1
 102 327 l 1
491 95 m 1
 491 184 l 2
 491 237 536 281 589 281 c 0
 642 281 686 237 686 184 c 2
 686 95 l 1
 639 95 l 1
 639 184 l 2
 639 212 617 233 589 233 c 0
 561 233 538 212 538 184 c 2
 538 95 l 1
 491 95 l 1
EndSplineSet
Validated: 1
EndChar

StartChar: colon
Encoding: 58 58 56
Width: 1177
Flags: HW
HStem: 29 21G<334 453 725 844> 78 114<984 1007.34 1008.24 1031> 78 48<1039.68 1090.06> 327 126<102 334 453 725 844 1075> 747 20G<334 453 725 844> 747 20G<334 453 725 844>
VStem: 334 119<29 327 453 767> 725 119<29 327 453 767> 881 41<185.374 224.554> 984 47<128.235 192>
LayerCount: 2
Fore
SplineSet
453 616 m 1024x93c0
102 327 m 1
 102 453 l 1
 334 453 l 1
 334 767 l 1
 453 767 l 1
 453 453 l 1
 725 453 l 1
 725 767 l 1
 844 767 l 1x9bc0
 844 453 l 1
 1075 453 l 1
 1075 327 l 1
 844 327 l 1
 844 29 l 1
 725 29 l 1
 725 327 l 1
 453 327 l 1
 453 29 l 1
 334 29 l 1
 334 327 l 1
 102 327 l 1
872 151 m 0
 868 163 867 174 867 185 c 0
 867 210 875 231 881 243 c 0
 883 246 885 248 887 250 c 2
 922 218 l 2
 921 215 920 211 918 206 c 0
 916 200 914 193 914 185 c 0
 914 166 923 154 925 151 c 0
 936 136 953 128 965 128 c 0
 968 128 971 129 973 130 c 0
 976 132 979 135 981 142 c 0
 984 150 984 190 984 192 c 1xd3c0
 1031 192 l 1
 1031 178 1036 131 1043 127 c 0
 1045 126 1047 126 1051 126 c 0xb3c0
 1068 126 1091 142 1098 163 c 0
 1100 170 1101 176 1101 182 c 0
 1101 202 1092 218 1092 218 c 1
 1094 216 l 1
 1129 247 l 1
 1132 244 l 2
 1135 239 1139 231 1140 228 c 0
 1146 212 1149 197 1149 184 c 0
 1149 169 1146 156 1143 148 c 0
 1134 119 1112 101 1101 94 c 0
 1077 78 1056 78 1051 78 c 0
 1026 78 1013 91 1008 96 c 1
 994 83 977 81 965 81 c 0
 943 81 925 90 915 97 c 0
 887 115 876 140 872 151 c 0
EndSplineSet
Validated: 1
EndChar

StartChar: question
Encoding: 63 63 57
Width: 732
Flags: HW
HStem: 29 21G<334 453> 340 47<546.878 630.683> 489 126<102 334 453 686> 747 20G<334 453> 747 20G<334 453> 763 38<165.918 233.729>
VStem: 122 37<652 755.892> 240 38<652 755.892> 334 119<29 489 615 767> 491 47<202 330.499> 639 47<202 330.499>
LayerCount: 2
Fore
SplineSet
453 616 m 1024xe3e0
102 489 m 1
 102 615 l 1
 334 615 l 1
 334 767 l 1
 453 767 l 1xf3e0
 453 615 l 1
 686 615 l 1
 686 489 l 1
 453 489 l 1
 453 29 l 1
 334 29 l 1
 334 489 l 1
 102 489 l 1
491 202 m 1
 491 291 l 2
 491 344 536 387 589 387 c 0
 642 387 686 344 686 291 c 2
 686 202 l 1
 639 202 l 1
 639 290 l 2
 639 318 617 340 589 340 c 0
 561 340 538 318 538 290 c 2
 538 202 l 1
 491 202 l 1
122 652 m 1
 122 724 l 2
 122 767 157 801 200 801 c 0
 243 801 278 767 278 724 c 2
 278 652 l 1
 240 652 l 1
 240 723 l 2
 240 745 222 763 200 763 c 0xe7e0
 178 763 159 745 159 723 c 2
 159 652 l 1
 122 652 l 1
EndSplineSet
Validated: 1
EndChar

StartChar: quotesingle
Encoding: 39 39 58
Width: 1566
Flags: HW
HStem: 29 21G<334 453 725 844> 108 118<1320.46 1413.54> 327 126<102 334 453 725 844 1116.42 1235 1464> 556 119<153.745 245.661> 747 20G<334 453 725 844> 747 20G<334 453 725 844>
VStem: 140 119<569.339 661.255> 334 119<29 327 453 767> 725 119<29 327 453 767> 1116 119<27 327 453 765> 1308 118<120.456 213.544>
LayerCount: 2
Fore
SplineSet
453 616 m 1024xf3e0
102 327 m 1
 102 453 l 1
 334 453 l 1
 334 767 l 1
 453 767 l 1
 453 453 l 1
 725 453 l 1
 725 767 l 1
 844 767 l 1xfbe0
 844 453 l 1
 1116 453 l 1
 1116 765 l 1
 1235 765 l 1
 1235 453 l 1
 1464 453 l 1
 1464 327 l 1
 1235 327 l 1
 1235 27 l 1
 1117 27 l 1
 1117 327 l 1
 844 327 l 1
 844 29 l 1
 725 29 l 1
 725 327 l 1
 453 327 l 1
 453 29 l 1
 334 29 l 1
 334 327 l 1
 102 327 l 1
140 615 m 0
 140 648 167 675 200 675 c 0
 233 675 259 648 259 615 c 0
 259 582 233 556 200 556 c 0
 167 556 140 582 140 615 c 0
1308 167 m 0
 1308 200 1334 226 1367 226 c 0
 1400 226 1426 200 1426 167 c 0
 1426 134 1400 108 1367 108 c 0
 1334 108 1308 134 1308 167 c 0
EndSplineSet
Validated: 1
EndChar

StartChar: hyphen
Encoding: 45 45 59
Width: 788
Flags: HW
HStem: 29 21G<334 453> 402 36<140.496 214.566> 489 126<102 334 453 686> 747 20G<334 453> 747 20G<334 453>
VStem: 334 119<29 489 615 767>
LayerCount: 2
Fore
SplineSet
453 616 m 1024xe4
102 489 m 1
 102 615 l 1
 334 615 l 1
 334 767 l 1
 453 767 l 1xf4
 453 615 l 1
 686 615 l 1
 686 489 l 1
 453 489 l 1
 453 29 l 1
 334 29 l 1
 334 489 l 1
 102 489 l 1
51 73 m 1
 58 78 102 109 145 152 c 1
 83 221 70 277 70 312 c 0
 70 328 73 340 75 347 c 0
 83 378 100 407 127 424 c 0
 140 433 156 438 173 438 c 0
 224 438 262 397 272 357 c 0
 275 345 276 334 276 322 c 0
 276 254 229 190 195 152 c 1
 223 125 256 98 294 73 c 1
 275 43 l 1
 235 69 200 96 170 125 c 1
 125 80 80 49 72 43 c 1
 51 73 l 1
110 337 m 0
 108 328 107 320 107 311 c 0
 107 250 159 191 170 178 c 1
 224 239 240 287 240 322 c 0
 240 332 239 340 237 348 c 0
 232 369 209 402 173 402 c 0
 163 402 154 399 146 394 c 0
 130 384 117 362 110 337 c 0
EndSplineSet
Validated: 1
EndChar

StartChar: slash
Encoding: 47 47 60
Width: 732
Flags: HW
HStem: 29 21G<334 453> 268 119<542.745 634.661> 340 47<157.878 241.683> 489 126<102 334 453 686> 747 20G<334 453> 747 20G<334 453>
VStem: 102 47<290 330.499> 250 47<290 330.499> 334 119<29 489 615 767> 529 119<281.745 373.661>
LayerCount: 2
Fore
SplineSet
453 616 m 1024x93c0
102 489 m 1
 102 615 l 1
 334 615 l 1
 334 767 l 1
 453 767 l 1x9bc0
 453 615 l 1
 686 615 l 1
 686 489 l 1
 453 489 l 1
 453 29 l 1
 334 29 l 1
 334 489 l 1
 102 489 l 1
102 202 m 1
 102 291 l 2
 102 344 147 387 200 387 c 0xb3c0
 253 387 297 344 297 291 c 2
 297 202 l 1
 250 202 l 1
 250 290 l 2
 250 318 228 340 200 340 c 0
 172 340 149 318 149 290 c 2
 149 202 l 1
 102 202 l 1
529 328 m 0
 529 361 556 387 589 387 c 0
 622 387 648 361 648 328 c 0
 648 295 622 268 589 268 c 0xd3c0
 556 268 529 295 529 328 c 0
EndSplineSet
Validated: 1
EndChar

StartChar: quotedbl
Encoding: 34 34 61
Width: 788
Flags: HW
HStem: 29 21G<334 453> 268 119<542.745 634.661> 340 47<157.878 241.683> 489 126<102 334 453 686> 669 118<152.839 246.544> 747 20G<334 453> 747 20G<334 453>
VStem: 102 47<290 330.499> 140 119<682.339 773.661> 250 47<290 330.499> 334 119<29 489 615 767> 529 119<281.745 373.661>
LayerCount: 2
Fore
SplineSet
453 616 m 1024x9030
102 489 m 1x9530
 102 615 l 1
 334 615 l 1
 334 767 l 1
 453 767 l 1
 453 615 l 1
 686 615 l 1
 686 489 l 1
 453 489 l 1
 453 29 l 1
 334 29 l 1
 334 489 l 1
 102 489 l 1x9530
140 728 m 0x98b0
 140 761 167 787 200 787 c 0
 233 787 259 761 259 728 c 0
 259 695 233 669 200 669 c 0
 167 669 140 695 140 728 c 0x98b0
529 328 m 0
 529 361 556 387 589 387 c 0
 622 387 648 361 648 328 c 0
 648 295 622 268 589 268 c 0xd030
 556 268 529 295 529 328 c 0
102 202 m 1xb170
 102 291 l 2
 102 344 147 387 200 387 c 0
 253 387 297 344 297 291 c 2
 297 202 l 1
 250 202 l 1
 250 290 l 2
 250 318 228 340 200 340 c 0
 172 340 149 318 149 290 c 2
 149 202 l 1
 102 202 l 1xb170
EndSplineSet
Validated: 1
EndChar

StartChar: equal
Encoding: 61 61 62
Width: 788
Flags: HW
HStem: 29 21G<334 453> 78 114<140 162.342 163.24 187> 78 48<195.655 245.946> 489 126<102 334 453 686> 747 20G<334 453> 747 20G<334 453>
VStem: 37 40<185.374 224.554> 140 47<128.235 192> 334 119<29 489 615 767>
LayerCount: 2
Fore
SplineSet
453 616 m 1024x9380
102 489 m 1
 102 615 l 1
 334 615 l 1
 334 767 l 1
 453 767 l 1x9b80
 453 615 l 1
 686 615 l 1
 686 489 l 1
 453 489 l 1
 453 29 l 1
 334 29 l 1
 334 489 l 1
 102 489 l 1
28 151 m 0
 24 163 23 174 23 185 c 0
 23 210 31 231 37 243 c 0
 39 246 40 248 42 250 c 2
 77 218 l 2
 76 215 75 211 73 206 c 0
 71 200 70 193 70 185 c 0
 70 166 78 154 80 151 c 0
 91 136 108 128 120 128 c 0
 123 128 126 129 128 130 c 0
 131 132 134 135 136 142 c 0
 139 150 140 190 140 192 c 1xd380
 187 192 l 1
 187 178 192 131 199 127 c 0
 201 126 202 126 206 126 c 0xb380
 223 126 247 142 254 163 c 0
 256 169 257 175 257 181 c 0
 257 202 247 218 247 218 c 1
 249 216 l 1
 285 247 l 2
 287 245 286 245 287 244 c 0
 290 239 294 231 295 228 c 0
 302 211 304 196 304 182 c 0
 304 168 302 156 299 148 c 0
 290 119 268 101 257 94 c 0
 233 78 211 78 206 78 c 0
 181 78 168 91 163 96 c 1
 149 83 132 81 120 81 c 0
 98 81 80 90 70 97 c 0
 42 115 32 140 28 151 c 0
EndSplineSet
Validated: 1
EndChar

StartChar: plus
Encoding: 43 43 63
Width: 788
Flags: HW
HStem: 29 21G<334 453> 268 119<153.745 245.661 542.745 634.661> 489 126<102 334 453 686> 669 118<152.839 246.544> 747 20G<334 453> 747 20G<334 453>
VStem: 140 119<281.745 373.661 682.339 773.661> 334 119<29 489 615 767> 529 119<281.745 373.661>
LayerCount: 2
Fore
SplineSet
453 616 m 1024xe380
102 489 m 1
 102 615 l 1
 334 615 l 1
 334 767 l 1
 453 767 l 1xeb80
 453 615 l 1
 686 615 l 1
 686 489 l 1
 453 489 l 1
 453 29 l 1
 334 29 l 1
 334 489 l 1
 102 489 l 1
140 728 m 0
 140 761 167 787 200 787 c 0
 233 787 259 761 259 728 c 0
 259 695 233 669 200 669 c 0xf380
 167 669 140 695 140 728 c 0
529 328 m 0
 529 361 556 387 589 387 c 0
 622 387 648 361 648 328 c 0
 648 295 622 268 589 268 c 0
 556 268 529 295 529 328 c 0
140 328 m 0
 140 361 167 387 200 387 c 0
 233 387 259 361 259 328 c 0
 259 295 233 268 200 268 c 0
 167 268 140 295 140 328 c 0
EndSplineSet
Validated: 1
EndChar

StartChar: parenright
Encoding: 41 41 64
Width: 1566
Flags: HW
HStem: 108 118<152.839 246.544> 556 119<1321.34 1412.66>
VStem: 140 119<121.339 212.661> 1308 118<568.456 662.161>
LayerCount: 2
Fore
SplineSet
1114 616 m 1024
1114 29 m 1
 1114 327 l 1
 841 327 l 1
 841 29 l 1
 723 29 l 1
 723 327 l 1
 450 327 l 1
 450 27 l 1
 332 27 l 1
 332 327 l 1
 102 327 l 1
 102 453 l 1
 332 453 l 1
 332 765 l 1
 451 765 l 1
 451 453 l 1
 723 453 l 1
 723 767 l 1
 842 767 l 1
 842 453 l 1
 1114 453 l 1
 1114 767 l 1
 1233 767 l 1
 1233 453 l 1
 1464 453 l 1
 1464 327 l 1
 1232 327 l 1
 1232 29 l 1
 1114 29 l 1
1308 615 m 0
 1308 648 1334 675 1367 675 c 0
 1400 675 1426 648 1426 615 c 0
 1426 582 1400 556 1367 556 c 0
 1334 556 1308 582 1308 615 c 0
140 167 m 0
 140 200 167 226 200 226 c 0
 233 226 259 200 259 167 c 0
 259 134 233 108 200 108 c 0
 167 108 140 134 140 167 c 0
EndSplineSet
Validated: 1
EndChar

StartChar: parenleft
Encoding: 40 40 65
Width: 1177
Flags: HW
HStem: 29 21G<334 453 725 844> 108 118<152.839 246.544 931.456 1024.54> 327 126<102 334 453 725 844 1075> 747 20G<334 453 725 844> 747 20G<334 453 725 844>
VStem: 140 119<121.339 212.661> 334 119<29 327 453 767> 725 119<29 327 453 767> 919 118<120.456 213.544>
LayerCount: 2
Fore
SplineSet
453 616 m 1024xe780
102 327 m 1
 102 453 l 1
 334 453 l 1
 334 767 l 1
 453 767 l 1
 453 453 l 1
 725 453 l 1
 725 767 l 1
 844 767 l 1xf780
 844 453 l 1
 1075 453 l 1
 1075 327 l 1
 844 327 l 1
 844 29 l 1
 725 29 l 1
 725 327 l 1
 453 327 l 1
 453 29 l 1
 334 29 l 1
 334 327 l 1
 102 327 l 1
140 167 m 0
 140 200 167 226 200 226 c 0
 233 226 259 200 259 167 c 0
 259 134 233 108 200 108 c 0
 167 108 140 134 140 167 c 0
919 167 m 0
 919 200 945 226 978 226 c 0
 1011 226 1037 200 1037 167 c 0
 1037 134 1011 108 978 108 c 0
 945 108 919 134 919 167 c 0
EndSplineSet
Validated: 1
EndChar

StartChar: at
Encoding: 64 64 66
Width: 1177
Flags: HW
HStem: 29 21G<334 453 725 844> 108 118<541.839 635.544 931.456 1024.54> 327 126<102 334 453 725 844 1075> 556 119<153.745 245.661> 747 20G<334 453 725 844> 747 20G<334 453 725 844>
VStem: 140 119<569.339 661.255> 334 119<29 327 453 767> 529 119<121.339 212.661> 725 119<29 327 453 767> 919 118<120.456 213.544>
LayerCount: 2
Fore
SplineSet
453 616 m 1024xf3e0
102 327 m 1
 102 453 l 1
 334 453 l 1
 334 767 l 1
 453 767 l 1
 453 453 l 1
 725 453 l 1
 725 767 l 1
 844 767 l 1xfbe0
 844 453 l 1
 1075 453 l 1
 1075 327 l 1
 844 327 l 1
 844 29 l 1
 725 29 l 1
 725 327 l 1
 453 327 l 1
 453 29 l 1
 334 29 l 1
 334 327 l 1
 102 327 l 1
140 615 m 0
 140 648 167 675 200 675 c 0
 233 675 259 648 259 615 c 0
 259 582 233 556 200 556 c 0
 167 556 140 582 140 615 c 0
529 167 m 0
 529 200 556 226 589 226 c 0
 622 226 648 200 648 167 c 0
 648 134 622 108 589 108 c 0
 556 108 529 134 529 167 c 0
919 167 m 0
 919 200 945 226 978 226 c 0
 1011 226 1037 200 1037 167 c 0
 1037 134 1011 108 978 108 c 0
 945 108 919 134 919 167 c 0
EndSplineSet
Validated: 1
EndChar

StartChar: one
Encoding: 49 49 67
Width: 1566
Flags: HW
HStem: 29 21G<334 453 725 844> 327 126<102 334 453 725 844 1116.42 1235 1464> 556 119<153.745 245.661> 747 20G<334 453 725 844> 747 20G<334 453 725 844>
VStem: 140 119<569.339 661.255> 334 119<29 327 453 767> 725 119<29 327 453 767> 1116 119<27 327 453 765>
LayerCount: 2
Fore
SplineSet
453 616 m 1024xe780
102 327 m 1
 102 453 l 1
 334 453 l 1
 334 767 l 1
 453 767 l 1
 453 453 l 1
 725 453 l 1
 725 767 l 1
 844 767 l 1xf780
 844 453 l 1
 1116 453 l 1
 1116 765 l 1
 1235 765 l 1
 1235 453 l 1
 1464 453 l 1
 1464 327 l 1
 1235 327 l 1
 1235 27 l 1
 1117 27 l 1
 1117 327 l 1
 844 327 l 1
 844 29 l 1
 725 29 l 1
 725 327 l 1
 453 327 l 1
 453 29 l 1
 334 29 l 1
 334 327 l 1
 102 327 l 1
140 615 m 0
 140 648 167 675 200 675 c 0
 233 675 259 648 259 615 c 0
 259 582 233 556 200 556 c 0
 167 556 140 582 140 615 c 0
EndSplineSet
Validated: 1
EndChar

StartChar: two
Encoding: 50 50 68
Width: 1177
Flags: HW
HStem: 29 21G<334 453 725 844> 327 126<102 334 453 725 844 1075> 665 47<157.878 241.683> 747 20G<334 453 725 844> 747 20G<334 453 725 844>
VStem: 102 47<615 654.673> 250 47<615 656.562> 334 119<29 327 453 767> 725 119<29 327 453 767>
LayerCount: 2
Fore
SplineSet
453 616 m 1024xe780
102 327 m 1
 102 453 l 1
 334 453 l 1
 334 767 l 1
 453 767 l 1
 453 453 l 1
 725 453 l 1
 725 767 l 1
 844 767 l 1xf780
 844 453 l 1
 1075 453 l 1
 1075 327 l 1
 844 327 l 1
 844 29 l 1
 725 29 l 1
 725 327 l 1
 453 327 l 1
 453 29 l 1
 334 29 l 1
 334 327 l 1
 102 327 l 1
102 526 m 1
 102 615 l 2
 102 668 147 712 200 712 c 0
 253 712 297 668 297 615 c 2
 297 526 l 1
 250 526 l 1
 250 615 l 2
 250 643 228 665 200 665 c 0
 172 665 149 643 149 615 c 2
 149 526 l 1
 102 526 l 1
EndSplineSet
Validated: 1
EndChar

StartChar: three
Encoding: 51 51 69
Width: 788
Flags: HW
HStem: 29 21G<334 453> 489 126<102 334 453 686> 633 114<140 162.342 163.24 187> 633 48<195.655 245.946> 747 20G<247 249 334 453> 771 21G<247 272.226>
VStem: 37 40<740.374 779.554> 140 47<683.218 747> 334 119<29 489 615 767>
LayerCount: 2
Fore
SplineSet
453 616 m 1024xc780
102 489 m 1
 102 615 l 1
 334 615 l 1
 334 767 l 1
 453 767 l 1xcf80
 453 615 l 1
 686 615 l 1
 686 489 l 1
 453 489 l 1
 453 29 l 1
 334 29 l 1
 334 489 l 1
 102 489 l 1
28 706 m 0
 24 718 23 729 23 740 c 0
 23 765 31 786 37 798 c 0
 39 801 40 803 42 805 c 2
 77 773 l 2
 76 770 75 766 73 761 c 0
 71 755 70 748 70 740 c 0
 70 721 78 709 80 706 c 0
 91 691 108 683 120 683 c 0
 123 683 126 684 128 685 c 0
 131 687 134 690 136 697 c 0
 139 705 140 745 140 747 c 1xe780
 187 747 l 1
 187 733 192 687 199 683 c 0
 201 682 202 681 206 681 c 0xd780
 223 681 247 697 254 718 c 0
 256 724 257 730 257 736 c 0
 257 757 247 773 247 773 c 1
 249 771 l 1
 285 802 l 2
 287 800 286 800 287 799 c 0
 290 794 294 786 295 783 c 0
 302 766 304 751 304 737 c 0
 304 723 302 711 299 703 c 0
 290 674 268 656 257 649 c 0
 233 633 211 633 206 633 c 0
 181 633 168 646 163 651 c 1
 149 638 132 636 120 636 c 0
 98 636 80 645 70 652 c 0
 42 670 32 695 28 706 c 0
EndSplineSet
Validated: 1
EndChar

StartChar: four
Encoding: 52 52 70
Width: 788
Flags: HW
HStem: 329 126<112 677> 748 25<354.825 435.749>
LayerCount: 2
Fore
SplineSet
112 329 m 1
 112 455 l 1
 677 455 l 1
 677 329 l 1
 112 329 l 1
272 525 m 1
 279 528 322 549 365 578 c 1
 303 625 290 663 290 687 c 0
 290 698 293 706 295 711 c 0
 303 732 320 752 347 764 c 0
 360 770 377 773 394 773 c 0
 445 773 482 745 492 718 c 0
 495 710 496 702 496 694 c 0
 496 648 449 604 415 578 c 1
 443 560 477 542 515 525 c 1
 495 504 l 1
 455 522 420 540 390 560 c 1
 345 529 300 508 292 504 c 1
 272 525 l 1
331 704 m 0
 329 698 328 692 328 686 c 0
 328 645 379 605 390 596 c 1
 444 638 460 670 460 694 c 0
 460 701 459 707 457 712 c 0
 452 726 430 748 394 748 c 0
 384 748 375 747 367 743 c 0
 351 736 338 721 331 704 c 0
EndSplineSet
Validated: 1
EndChar

StartChar: five
Encoding: 53 53 71
Width: 614
Flags: HW
HStem: 528 119<270.339 362.255> 744 73<252.72 380.733>
VStem: 257 119<541.745 633.661>
LayerCount: 2
Fore
SplineSet
70 86 m 1
 84 96 171 158 257 244 c 1
 134 383 109 493 109 563 c 0
 109 596 114 620 118 634 c 0
 135 696 168 755 221 789 c 0
 248 806 280 817 314 817 c 0
 416 817 491 735 512 654 c 0
 518 631 521 608 521 585 c 0
 521 449 426 322 357 244 c 1
 412 190 480 137 557 87 c 1
 517 26 l 1
 437 78 366 133 307 191 c 1
 216 100 128 37 112 26 c 1
 70 86 l 1
188 615 m 0
 183 598 181 580 181 563 c 0
 181 441 283 324 307 297 c 1
 415 420 447 515 447 585 c 0
 447 604 445 621 441 636 c 0
 430 678 386 744 314 744 c 0
 294 744 277 738 261 728 c 0
 229 707 201 665 188 615 c 0
257 588 m 0
 257 621 283 647 316 647 c 0
 349 647 376 621 376 588 c 0
 376 555 349 528 316 528 c 0
 283 528 257 555 257 588 c 0
EndSplineSet
Validated: 1
EndChar

StartChar: six
Encoding: 54 54 72
Width: 788
Flags: HW
HStem: 254 24<359.952 438.566> 329 126<112 677>
LayerCount: 2
Fore
SplineSet
112 329 m 1
 112 455 l 1
 677 455 l 1
 677 329 l 1
 112 329 l 1
275 30 m 1
 282 33 325 54 368 83 c 1
 307 130 294 167 294 191 c 0
 294 202 297 211 299 216 c 0
 307 237 324 257 351 269 c 0
 364 275 380 278 397 278 c 0
 448 278 486 250 496 223 c 0
 499 215 500 207 500 199 c 0
 500 153 453 110 419 84 c 1
 447 66 480 47 518 30 c 1
 499 9 l 1
 459 27 424 46 394 66 c 1
 349 35 304 14 296 10 c 1
 275 30 l 1
334 210 m 0
 332 204 331 198 331 192 c 0
 331 151 382 111 393 102 c 1
 448 144 464 176 464 200 c 0
 464 206 463 212 461 217 c 0
 456 231 433 254 397 254 c 0
 387 254 378 252 370 248 c 0
 354 241 341 227 334 210 c 0
EndSplineSet
Validated: 1
EndChar

StartChar: seven
Encoding: 55 55 73
Width: 788
Flags: HW
HStem: 29 21G<334 453> 78 114<602 625.342 626.24 650> 78 48<657.684 708.478> 489 126<102 334 453 686> 747 20G<334 453> 747 20G<334 453>
VStem: 334 119<29 489 615 767> 500 40<185.374 224.554> 602 48<128.235 192>
LayerCount: 2
Fore
SplineSet
453 616 m 1024x9380
102 489 m 1
 102 615 l 1
 334 615 l 1
 334 767 l 1
 453 767 l 1x9b80
 453 615 l 1
 686 615 l 1
 686 489 l 1
 453 489 l 1
 453 29 l 1
 334 29 l 1
 334 489 l 1
 102 489 l 1
490 151 m 0
 487 162 485 174 485 184 c 0
 485 210 494 231 500 243 c 0
 502 246 503 248 505 250 c 2
 540 218 l 2
 539 215 538 211 536 206 c 0
 534 200 533 193 533 185 c 0
 533 166 541 154 543 151 c 0
 554 136 571 128 583 128 c 0
 586 128 589 129 591 130 c 0
 594 132 597 135 599 142 c 0
 602 150 602 190 602 192 c 1xd380
 650 192 l 1
 650 178 654 131 661 127 c 0
 663 126 665 126 669 126 c 0xb380
 686 126 710 142 717 163 c 0
 719 169 720 175 720 181 c 0
 720 202 710 218 710 218 c 1
 712 216 l 1
 747 247 l 1
 750 244 l 2
 753 239 757 231 758 228 c 0
 765 211 767 196 767 182 c 0
 767 168 765 156 762 148 c 0
 753 119 730 101 719 94 c 0
 695 78 674 78 669 78 c 0
 644 78 631 91 626 96 c 1
 612 83 595 81 583 81 c 0
 561 81 543 90 533 97 c 0
 505 115 494 140 490 151 c 0
EndSplineSet
Validated: 1
EndChar

StartChar: eight
Encoding: 56 56 74
Width: 1177
Flags: HW
HStem: 29 21G<334 453 725 844> 233 48<970.988 1055.46> 327 126<102 334 453 725 844 1075> 747 20G<334 453 725 844> 747 20G<334 453 725 844>
VStem: 334 119<29 327 453 767> 725 119<29 327 453 767> 916 47<95 223.673> 1064 47<95 223.673>
LayerCount: 2
Fore
SplineSet
453 616 m 1024xe780
102 327 m 1
 102 453 l 1
 334 453 l 1
 334 767 l 1
 453 767 l 1
 453 453 l 1
 725 453 l 1
 725 767 l 1
 844 767 l 1xf780
 844 453 l 1
 1075 453 l 1
 1075 327 l 1
 844 327 l 1
 844 29 l 1
 725 29 l 1
 725 327 l 1
 453 327 l 1
 453 29 l 1
 334 29 l 1
 334 327 l 1
 102 327 l 1
916 95 m 1
 916 184 l 2
 916 237 960 281 1013 281 c 0
 1066 281 1111 237 1111 184 c 2
 1111 95 l 1
 1064 95 l 1
 1064 184 l 2
 1064 212 1041 233 1013 233 c 0
 985 233 963 212 963 184 c 2
 963 95 l 1
 916 95 l 1
EndSplineSet
Validated: 1
EndChar

StartChar: nine
Encoding: 57 57 75
Width: 1566
Flags: HW
HStem: 29 21G<334 453 725 844> 108 118<1320.46 1413.54> 327 126<102 334 453 725 844 1116.42 1235 1464> 747 20G<334 453 725 844> 747 20G<334 453 725 844>
VStem: 334 119<29 327 453 767> 725 119<29 327 453 767> 1116 119<27 327 453 765> 1308 118<120.456 213.544>
LayerCount: 2
Fore
SplineSet
453 616 m 1024xe780
102 327 m 1
 102 453 l 1
 334 453 l 1
 334 767 l 1
 453 767 l 1
 453 453 l 1
 725 453 l 1
 725 767 l 1
 844 767 l 1xf780
 844 453 l 1
 1116 453 l 1
 1116 765 l 1
 1235 765 l 1
 1235 453 l 1
 1464 453 l 1
 1464 327 l 1
 1235 327 l 1
 1235 27 l 1
 1117 27 l 1
 1117 327 l 1
 844 327 l 1
 844 29 l 1
 725 29 l 1
 725 327 l 1
 453 327 l 1
 453 29 l 1
 334 29 l 1
 334 327 l 1
 102 327 l 1
1308 167 m 0
 1308 200 1334 226 1367 226 c 0
 1400 226 1426 200 1426 167 c 0
 1426 134 1400 108 1367 108 c 0
 1334 108 1308 134 1308 167 c 0
EndSplineSet
Validated: 1
EndChar
